<?xml version="1.0" encoding="UTF-8"?>
<svg id="Layer_2" data-name="Layer 2" xmlns="http://www.w3.org/2000/svg" viewBox="0 0 906.21 906.21">
  <defs>
    <style>
      .cls-1 {
        fill: #fff;
      }
    </style>
  </defs>
  <g id="Layer_1-2" data-name="Layer 1">
    <g>
      <g>
        <circle cx="453.1" cy="453.1" r="433.12"/>
        <circle cx="453.1" cy="453.1" r="453.1"/>
      </g>
      <g>
        <rect x="154.81" y="154.81" width="596.58" height="596.58" transform="translate(-187.68 453.11) rotate(-45)"/>
        <path class="cls-1" d="M453.1,45.4l407.71,407.71-407.71,407.71L45.4,453.1,453.1,45.4M453.1,17.11L17.11,453.1l435.99,435.99,435.99-435.99L453.1,17.11h0Z"/>
      </g>
      <g>
        <path class="cls-1" d="M453.1,645.36c-106.01,0-192.26-86.25-192.26-192.26s86.25-192.26,192.26-192.26,192.26,86.25,192.26,192.26-86.25,192.26-192.26,192.26Z"/>
        <path d="M453.1,263.85c25.55,0,50.34,5,73.67,14.87,22.54,9.53,42.78,23.18,60.16,40.56,17.38,17.38,31.03,37.62,40.56,60.16,9.87,23.33,14.87,48.11,14.87,73.67s-5,50.34-14.87,73.67c-9.53,22.54-23.18,42.78-40.56,60.16-17.38,17.38-37.62,31.03-60.16,40.56-23.33,9.87-48.11,14.87-73.67,14.87s-50.34-5-73.67-14.87c-22.54-9.53-42.78-23.18-60.16-40.56-17.38-17.38-31.03-37.62-40.56-60.16-9.87-23.33-14.87-48.11-14.87-73.67s5-50.34,14.87-73.67c9.53-22.54,23.18-42.78,40.56-60.16,17.38-17.38,37.62-31.03,60.16-40.56,23.33-9.87,48.11-14.87,73.67-14.87M453.1,257.85c-107.84,0-195.26,87.42-195.26,195.26s87.42,195.26,195.26,195.26,195.26-87.42,195.26-195.26-87.42-195.26-195.26-195.26h0Z"/>
      </g>
      <g>
        <rect class="cls-1" x="250.83" y="250.83" width="404.55" height="404.55" transform="translate(-187.68 453.11) rotate(-45)"/>
        <path d="M453.1,181.19l271.92,271.92-271.92,271.92L181.19,453.1,453.1,181.19M453.1,152.91L152.9,453.1l300.2,300.2,300.2-300.2L453.1,152.91h0Z"/>
      </g>
      <g>
        <g id="hE9oh8">
          <path d="M446.99,580.12c2.08-5.62-6.78-18.17-11.73-18.87-2.47-.35-9.96,5.99-13.05,7.59-19.07,9.86-46.45,7.31-63.23-6.2-18.28-14.73-5.56-14.22,6.9-20.12,8.86-4.2,19.3-10.9,29.05-12.95,9-1.89,28.69-2.45,30.08,10.04.43,3.87-2.34,11.58.66,13.59,4.93,3.3,6.37-4.08,9.79-3.06,3.28.98.11,6.56.98,7.98,1,1.63,8.86,5.55,10.06,9.01l1.59-10.49-2.1-32.5c-1.79-2.13-8.96,12.67-13.35,11.84-5.23-.99-10.95-22.54-10.65-27.85-1.28-1.22-7.5,4.12-9.32,5.17-17.43,10.08-22.06,12.8-19.66-11.66.45-4.59,2.71-8.88,2.99-13.5-9.8,2.75-19.73,4.75-30,4-.39-3.91.41-7.28,1.55-10.96,2.04-6.55,6.83-11.81,9.45-18.04-4.23.2-27.41-4.44-27.75-8.49-.3-3.55,10.42-13.11,13.28-15.49,2.51-2.09,6.91-4.21,8.85-5.94.89-.79.85-.77.62-2.07-4.54-.78-23.82-14.06-23.81-17.53,6.7-8.48,17.98-10.06,27.81-12.5-3.06-6.59-8.98-12.24-11.22-19.27-2.01-6.31-.15-6.86,5.84-7.61,7.36-.92,15.18.48,22.37,1.88-.56-4.92-6.6-29.1-3.06-31.56,6.88-4.79,29.79,12.7,31.06,11.56.51-5.02,3.71-23.32,8.01-25.57,4.49-2.35,17.89,15.06,20.5,18.55.85-3.44,14.6-23.07,16.01-23.01,6.38.3,14.15,23.17,14.5,29.02,1.16.85,21.76-15.65,25.01-13.58,4.94,3.15,2.67,24.85,1.98,30.58,6.06-1.28,28.22-7.06,32.11-2.54,3.23,3.75-9.6,25.66-13.12,29.54,4.16.61,26.34,5.7,27.87,8.13,3.91,6.18-16.01,17.66-18.82,20.44-.84.83-1.41.92-1.05,2.43,4.72.9,24.02,15.03,24.04,18.52.02,4.23-14.96,9.42-18.65,10.39-2.45.64-11.04.89-11.39,2.63,2.16,4.6,15.75,22.29,12.59,26.55-9.58,3.93-19.77.87-29.58-.06,1.59,4.19,5.89,28.96,2.85,30.85-2.67,1.66-11.89-1.95-14.84-3.37-5.38-2.6-9.45-7.42-15.01-9.48-.75,5.24-4.86,25.55-9.03,27.56-4.7-.79-10.49-4.91-12-9.57-2.97.81-.72,3.27-.94,5.44-.71,6.92-1.04,14.13-1.09,21.02-.04,5.46-.59,12.96,0,18.09.13,1.1.34,3.22,1.57,3.46,2.22.43,10.4-6.92,10.58-10.52.34-6.88-16.4-18.77-.81-25.69,4.7-2.08,21.48-5.98,26.18-5.84s15.69,4.48,21.09,4.99c6.9.66,14.47-.37,21.44.06-6.51,21.67-23.46,44.14-49.02,37.52-3.28-.85-6.15-2.96-9.57-3.44-9.23-1.3-18.47,1.22-21.41,10.91h-14Z"/>
        </g>
        <g>
          <circle class="cls-1" cx="452.6" cy="431.65" r="35.05"/>
          <path d="M451.4,407.23c19.16-1.4,31.47,20.25,20.32,36.08-8.4,11.93-26.5,12.59-35.84,1.29-11.41-13.81-2.43-36.06,15.52-37.37ZM446.5,412.11c-6.57.36-11,10.01-3.43,12.7,5.46,1.94,10.31-2.85,9.43-8.38-.35-2.16-3.87-4.44-6-4.32ZM448.32,443.55c2.86,8.72,17.67,5.16,20.39-1.85,1.16-2.98-1.4-3.12-2.7-5.16-3.89,6.34-10.44,9-17.69,7.01Z"/>
        </g>
      </g>
    </g>
  </g>
</svg>