<?xml version="1.0" encoding="UTF-8"?>
<svg id="Layer_2" data-name="Layer 2" xmlns="http://www.w3.org/2000/svg" viewBox="0 0 907.21 907.21">
  <defs>
    <style>
      .cls-1 {
        fill: #fff;
      }
    </style>
  </defs>
  <g id="Layer_1-2" data-name="Layer 1">
    <g>
      <g>
        <path d="M453.61,21.48c58.33,0,114.92,11.43,168.2,33.96,51.46,21.76,97.67,52.92,137.35,92.61,39.69,39.69,70.84,85.9,92.61,137.35,22.53,53.27,33.96,109.86,33.96,168.2s-11.43,114.93-33.96,168.2c-21.76,51.46-52.92,97.67-92.61,137.36-39.69,39.69-85.9,70.84-137.35,92.61-53.27,22.53-109.86,33.96-168.2,33.96s-114.93-11.43-168.2-33.96c-51.46-21.76-97.67-52.92-137.36-92.61s-70.84-85.9-92.61-137.36c-22.53-53.27-33.96-109.87-33.96-168.2s11.43-114.93,33.96-168.2c21.77-51.46,52.92-97.67,92.61-137.35,39.69-39.69,85.9-70.84,137.36-92.61,53.27-22.53,109.87-33.96,168.2-33.96M453.61,20.48C214.4,20.48,20.48,214.4,20.48,453.6s193.92,433.13,433.13,433.13,433.12-193.92,433.12-433.13S692.81,20.48,453.61,20.48h0Z"/>
        <g>
          <path d="M453.61,906.21c-61.1,0-120.38-11.97-176.18-35.57-53.9-22.8-102.3-55.43-143.87-97-41.57-41.57-74.2-89.97-97-143.87C12.97,573.98,1,514.7,1,453.6s11.97-120.37,35.57-176.17c22.8-53.9,55.43-102.3,97-143.86,41.57-41.57,89.97-74.2,143.87-97C333.23,12.97,392.51,1,453.61,1s120.37,11.97,176.17,35.57c53.9,22.8,102.3,55.43,143.86,97,41.57,41.57,74.2,89.97,97,143.86,23.6,55.8,35.57,115.07,35.57,176.17s-11.97,120.38-35.57,176.18c-22.8,53.9-55.43,102.3-97,143.87-41.57,41.57-89.97,74.2-143.86,97-55.8,23.6-115.07,35.57-176.17,35.57ZM453.61,19.98c-58.54,0-115.33,11.47-168.79,34.08-51.64,21.84-98.01,53.11-137.83,92.93s-71.09,86.2-92.93,137.83c-22.61,53.46-34.08,110.25-34.08,168.78s11.46,115.33,34.08,168.79c21.84,51.64,53.11,98.01,92.93,137.83s86.2,71.09,137.83,92.93c53.46,22.61,110.25,34.08,168.79,34.08s115.32-11.47,168.78-34.08c51.63-21.84,98.01-53.11,137.83-92.93,39.82-39.82,71.09-86.2,92.93-137.83,22.61-53.46,34.08-110.25,34.08-168.79s-11.46-115.32-34.08-168.78c-21.84-51.64-53.11-98.01-92.93-137.83-39.82-39.82-86.2-71.09-137.83-92.93-53.46-22.61-110.25-34.08-168.78-34.08Z"/>
          <path d="M453.61,1.5c61.03,0,120.24,11.95,175.98,35.53,53.84,22.77,102.19,55.37,143.71,96.89,41.52,41.52,74.12,89.87,96.89,143.71,23.57,55.74,35.53,114.94,35.53,175.98s-11.95,120.25-35.53,175.98c-22.77,53.84-55.37,102.19-96.89,143.71-41.52,41.52-89.87,74.12-143.71,96.89-55.74,23.57-114.94,35.53-175.98,35.53s-120.25-11.95-175.98-35.53c-53.84-22.77-102.19-55.37-143.71-96.89-41.52-41.52-74.12-89.87-96.89-143.71C13.45,573.85,1.5,514.64,1.5,453.6s11.95-120.24,35.53-175.98c22.77-53.84,55.37-102.19,96.89-143.71,41.52-41.52,89.87-74.12,143.71-96.89C333.36,13.45,392.57,1.5,453.61,1.5M453.61,887.73c58.6,0,115.46-11.48,168.98-34.12,51.69-21.87,98.12-53.17,137.99-93.04,39.87-39.87,71.17-86.3,93.04-137.99,22.64-53.52,34.12-110.38,34.12-168.98s-11.48-115.46-34.12-168.98c-21.87-51.69-53.17-98.12-93.04-137.99-39.87-39.87-86.3-71.17-137.99-93.04-53.52-22.64-110.37-34.12-168.98-34.12s-115.46,11.48-168.98,34.12c-51.7,21.87-98.12,53.17-137.99,93.04s-71.17,86.3-93.04,137.99c-22.64,53.52-34.12,110.37-34.12,168.98s11.48,115.46,34.12,168.98c21.87,51.7,53.17,98.12,93.04,137.99,39.87,39.87,86.3,71.17,137.99,93.04,53.52,22.64,110.38,34.12,168.98,34.12M453.61.5C203.36.5.5,203.36.5,453.6s202.86,453.11,453.11,453.11,453.1-202.86,453.1-453.11S703.85.5,453.61.5h0ZM453.61,886.73c-239.21,0-433.13-193.92-433.13-433.13S214.4,20.48,453.61,20.48s433.12,193.92,433.12,433.12-193.92,433.13-433.12,433.13h0Z"/>
        </g>
        <g>
          <path class="cls-1" d="M453.61,886.23c-58.41,0-115.06-11.44-168.4-34-51.52-21.79-97.78-52.98-137.52-92.72-39.73-39.73-70.93-86-92.72-137.52-22.56-53.34-34-109.99-34-168.4s11.44-115.06,34-168.39c21.79-51.52,52.98-97.78,92.72-137.51,39.73-39.73,86-70.93,137.52-92.72,53.34-22.56,110-34,168.4-34s115.06,11.44,168.39,34c51.52,21.79,97.78,52.98,137.51,92.72,39.73,39.73,70.93,86,92.72,137.51,22.56,53.33,34,109.99,34,168.39s-11.44,115.06-34,168.4c-21.79,51.52-52.98,97.78-92.72,137.52-39.73,39.73-86,70.93-137.51,92.72-53.33,22.56-109.99,34-168.39,34Z"/>
          <path d="M453.61,21.48c58.33,0,114.92,11.43,168.2,33.96,51.46,21.76,97.67,52.92,137.35,92.61,39.69,39.69,70.84,85.9,92.61,137.35,22.53,53.27,33.96,109.86,33.96,168.2s-11.43,114.93-33.96,168.2c-21.76,51.46-52.92,97.67-92.61,137.36-39.69,39.69-85.9,70.84-137.35,92.61-53.27,22.53-109.86,33.96-168.2,33.96s-114.93-11.43-168.2-33.96c-51.46-21.76-97.67-52.92-137.36-92.61s-70.84-85.9-92.61-137.36c-22.53-53.27-33.96-109.87-33.96-168.2s11.43-114.93,33.96-168.2c21.77-51.46,52.92-97.67,92.61-137.35,39.69-39.69,85.9-70.84,137.36-92.61,53.27-22.53,109.87-33.96,168.2-33.96M453.61,20.48C214.4,20.48,20.48,214.4,20.48,453.6s193.92,433.13,433.13,433.13,433.12-193.92,433.12-433.13S692.81,20.48,453.61,20.48h0Z"/>
        </g>
      </g>
      <g>
        <rect class="cls-1" x="154.89" y="156.32" width="594.56" height="594.56" transform="translate(-188.31 452.59) rotate(-45)"/>
        <path d="M452.17,47.33l406.27,406.27-406.27,406.27L45.9,453.6,452.17,47.33M452.17,19.05L17.61,453.6l434.56,434.56,434.56-434.56L452.17,19.05h0Z"/>
      </g>
      <g>
        <path class="cls-1" d="M453.61,645.86c-106.01,0-192.26-86.25-192.26-192.26s86.25-192.26,192.26-192.26,192.26,86.25,192.26,192.26-86.25,192.26-192.26,192.26Z"/>
        <path d="M453.61,264.34c25.55,0,50.34,5,73.67,14.87,22.54,9.53,42.78,23.18,60.16,40.56,17.38,17.38,31.03,37.62,40.56,60.16,9.87,23.33,14.87,48.11,14.87,73.67s-5,50.34-14.87,73.67c-9.53,22.54-23.18,42.78-40.56,60.16-17.38,17.38-37.62,31.03-60.16,40.56-23.33,9.87-48.11,14.87-73.67,14.87s-50.34-5-73.67-14.87c-22.54-9.53-42.78-23.18-60.16-40.56-17.38-17.38-31.03-37.62-40.56-60.16-9.87-23.33-14.87-48.11-14.87-73.67s5-50.34,14.87-73.67c9.53-22.54,23.18-42.78,40.56-60.16,17.38-17.38,37.62-31.03,60.16-40.56,23.33-9.87,48.11-14.87,73.67-14.87M453.61,258.34c-107.84,0-195.26,87.42-195.26,195.26s87.42,195.26,195.26,195.26,195.26-87.42,195.26-195.26-87.42-195.26-195.26-195.26h0Z"/>
      </g>
      <g>
        <rect class="cls-1" x="251.33" y="251.33" width="404.55" height="404.55" transform="translate(-187.89 453.6) rotate(-45)"/>
        <path d="M453.61,181.69l271.92,271.92-271.92,271.92L181.69,453.6,453.61,181.69M453.61,153.4L153.41,453.6l300.2,300.2,300.2-300.2L453.61,153.4h0Z"/>
      </g>
      <g>
        <g id="hE9oh8">
          <path d="M447.49,580.62c2.08-5.62-6.78-18.17-11.73-18.87-2.47-.35-9.96,5.99-13.05,7.59-19.07,9.86-46.45,7.31-63.23-6.2-18.28-14.73-5.56-14.22,6.9-20.12,8.86-4.2,19.3-10.9,29.05-12.95,9-1.89,28.69-2.45,30.08,10.04.43,3.87-2.34,11.58.66,13.59,4.93,3.3,6.37-4.08,9.79-3.06,3.28.98.11,6.56.98,7.98,1,1.63,8.86,5.55,10.06,9.01l1.59-10.49-2.1-32.5c-1.79-2.13-8.96,12.67-13.35,11.84-5.23-.99-10.95-22.54-10.65-27.85-1.28-1.22-7.5,4.12-9.32,5.17-17.43,10.08-22.06,12.8-19.66-11.66.45-4.59,2.71-8.88,2.99-13.5-9.8,2.75-19.73,4.75-30,4-.39-3.91.41-7.28,1.55-10.96,2.04-6.55,6.83-11.81,9.45-18.04-4.23.2-27.41-4.44-27.75-8.49-.3-3.55,10.42-13.11,13.28-15.49,2.51-2.09,6.91-4.21,8.85-5.94.89-.79.85-.77.62-2.07-4.54-.78-23.82-14.06-23.81-17.53,6.7-8.48,17.98-10.06,27.81-12.5-3.06-6.59-8.98-12.24-11.22-19.27-2.01-6.31-.15-6.86,5.84-7.61,7.36-.92,15.18.48,22.37,1.88-.56-4.92-6.6-29.1-3.06-31.56,6.88-4.79,29.79,12.7,31.06,11.56.51-5.02,3.71-23.32,8.01-25.57,4.49-2.35,17.89,15.06,20.5,18.55.85-3.44,14.6-23.07,16.01-23.01,6.38.3,14.15,23.17,14.5,29.02,1.16.85,21.76-15.65,25.01-13.58,4.94,3.15,2.67,24.85,1.98,30.58,6.06-1.28,28.22-7.06,32.11-2.54,3.23,3.75-9.6,25.66-13.12,29.54,4.16.61,26.34,5.7,27.87,8.13,3.91,6.18-16.01,17.66-18.82,20.44-.84.83-1.41.92-1.05,2.43,4.72.9,24.02,15.03,24.04,18.52.02,4.23-14.96,9.42-18.65,10.39-2.45.64-11.04.89-11.39,2.63,2.16,4.6,15.75,22.29,12.59,26.55-9.58,3.93-19.77.87-29.58-.06,1.59,4.19,5.89,28.96,2.85,30.85-2.67,1.66-11.89-1.95-14.84-3.37-5.38-2.6-9.45-7.42-15.01-9.48-.75,5.24-4.86,25.55-9.03,27.56-4.7-.79-10.49-4.91-12-9.57-2.97.81-.72,3.27-.94,5.44-.71,6.92-1.04,14.13-1.09,21.02-.04,5.46-.59,12.96,0,18.09.13,1.1.34,3.22,1.57,3.46,2.22.43,10.4-6.92,10.58-10.52.34-6.88-16.4-18.77-.81-25.69,4.7-2.08,21.48-5.98,26.18-5.84s15.69,4.48,21.09,4.99c6.9.66,14.47-.37,21.44.06-6.51,21.67-23.46,44.14-49.02,37.52-3.28-.85-6.15-2.96-9.57-3.44-9.23-1.3-18.47,1.22-21.41,10.91h-14Z"/>
        </g>
        <g>
          <circle class="cls-1" cx="453.1" cy="432.15" r="35.05"/>
          <path d="M451.9,407.73c19.16-1.4,31.47,20.25,20.32,36.08-8.4,11.93-26.5,12.59-35.84,1.29-11.41-13.81-2.43-36.06,15.52-37.37ZM447,412.61c-6.57.36-11,10.01-3.43,12.7,5.46,1.94,10.31-2.85,9.43-8.38-.35-2.16-3.87-4.44-6-4.32ZM448.82,444.05c2.86,8.72,17.67,5.16,20.39-1.85,1.16-2.98-1.4-3.12-2.7-5.16-3.89,6.34-10.44,9-17.69,7.01Z"/>
        </g>
      </g>
    </g>
  </g>
</svg>